<svg xmlns="http://www.w3.org/2000/svg" xmlns:xlink="http://www.w3.org/1999/xlink" version="1.1" id="Layer_1" x="0px" y="0px" viewBox="0 0 157 40" enable-background="new 0 0 157 40" xml:space="preserve"><polygon points="14.507,14.546 14.507,17.97 17.931,17.97 17.931,14.546 17.931,11.122 17.931,7.698 7.66,7.698 7.66,11.122   14.507,11.122 "></polygon><polygon points="28.202,7.698 21.354,7.698 21.354,11.122 28.202,11.122 28.202,17.97 31.626,17.97 31.626,11.122 31.626,8.747   31.626,7.698 29.914,7.698 "></polygon><path d="M19.643,29.961c-4.724,0-8.567-3.843-8.567-8.567H7.668c0,6.604,5.372,11.975,11.975,11.975  c6.604,0,11.975-5.371,11.975-11.975H28.21C28.21,26.118,24.367,29.961,19.643,29.961"></path><path d="M0,39.635h39.285V0.35H0V39.635z M3.408,3.758h32.47v32.47H3.408V3.758z"></path><polygon points="53.039,10.937 58.93,10.937 58.93,7.862 53.039,7.862 53.039,3.426 59.61,3.426 59.61,0.353 49.542,0.353   49.542,16.78 53.039,16.78 "></polygon><path d="M71.942,14.058l1.291,2.723h3.638v-0.47L69.361,0.21h-1.62l-7.557,16.101v0.47h3.661l1.268-2.723H71.942z M68.539,5.68  l2.277,5.421h-4.554L68.539,5.68z"></path><path d="M84.907,14.058c-1.595,0-3.237-0.634-3.309-2.137h-3.355c0,3.592,3.402,5.212,6.689,5.212  c3.237-0.071,6.593-1.269,6.593-5.141c0-3.85-2.979-4.623-6.453-4.928c-1.714-0.188-3.145-0.518-3.145-1.972  c0-1.269,1.385-2.019,2.792-2.019c1.409,0,2.794,0.562,2.98,1.901h3.287C90.987,1.29,87.794,0,84.72,0  c-3.262,0-6.242,1.526-6.242,5.163c0,3.402,3.005,4.411,5.984,4.67c1.573,0.117,3.591,0.282,3.591,2.159  C88.053,13.705,86.362,14.058,84.907,14.058"></path><polygon points="98.578,9.833 104.868,9.833 104.868,16.78 108.388,16.78 108.388,0.352 104.868,0.352 104.868,6.619 98.578,6.619   98.578,0.352 95.081,0.352 95.081,16.78 98.578,16.78 "></polygon><polygon points="117.903,3.074 120.038,3.074 120.038,0.352 112.247,0.352 112.247,3.074 114.383,3.074 114.383,13.987   112.06,13.987 112.06,16.78 120.227,16.78 120.227,13.987 117.903,13.987 "></polygon><path d="M131.196,0.093c-4.365,0-8.425,2.935-8.425,8.474c0,5.538,3.967,8.494,8.355,8.494c4.977,0,8.426-3.497,8.426-8.494  C139.553,3.051,135.492,0.093,131.196,0.093 M131.174,13.847c-2.629,0-4.857-1.689-4.857-5.28c0-3.474,2.299-5.233,4.88-5.233  c2.559,0,4.859,1.736,4.859,5.233C136.056,12.157,133.731,13.847,131.174,13.847"></path><polygon points="153.48,0.352 153.48,9.668 144.257,0.281 143.153,0.281 143.153,16.78 146.651,16.78 146.651,7.393 155.944,16.827   157,16.827 157,0.352 "></polygon><path d="M55.668,23.243h-6.104v16.404h6.104c5.303,0,8.119-4.061,8.049-8.262C63.718,27.21,60.902,23.243,55.668,23.243   M55.621,36.479h-2.559V26.411h2.559c2.98,0,4.6,2.37,4.6,4.999S58.649,36.479,55.621,36.479"></path><path d="M72.39,23.077l-7.558,16.101v0.47h3.661l1.267-2.723h6.831l1.29,2.723h3.637v-0.47l-7.509-16.101H72.39z M70.91,33.969  l2.277-5.422l2.277,5.422H70.91z"></path><polygon points="89.931,26.599 88.312,29.86 88.194,29.86 86.646,26.716 84.604,23.219 80.825,23.219 80.825,23.736 86.48,33.076   86.48,39.647 90.002,39.647 90.002,33.076 95.634,23.736 95.634,23.219 91.901,23.219 "></polygon><path d="M103.883,29.932c-1.714-0.188-3.145-0.518-3.145-1.972c0-1.269,1.384-2.019,2.792-2.019c1.407,0,2.793,0.563,2.98,1.901  h3.286c0-3.685-3.192-4.976-6.267-4.976c-3.262,0-6.243,1.525-6.243,5.163c0,3.403,3.004,4.411,5.985,4.671  c1.571,0.117,3.59,0.281,3.59,2.158c0,1.713-1.689,2.065-3.145,2.065c-1.596,0-3.238-0.634-3.309-2.136h-3.356  c0,3.591,3.403,5.211,6.688,5.211c3.239-0.07,6.596-1.269,6.596-5.141C110.336,31.01,107.355,30.236,103.883,29.932"></path></svg>